<svg xmlns="http://www.w3.org/2000/svg" viewBox="0 0 124.11 116.12"><g id="Capa_2" data-name="Capa 2"><g id="Capa_1-2" data-name="Capa 1"><path d="M12.81,86.37c1.8-.36,2.72-1.7,3.56-3.16,4.78-8.27,16.78-27,17.84-25.27,3.24,5.16,7,13.7,10.07,19a56.85,56.85,0,0,0,5.38,7.65A12.8,12.8,0,0,0,51.72,90c4.22,6.46,7.44,13.5,11.33,20.15.92,1.56,1.42,3-.32,4.31A62.13,62.13,0,0,1,37,114.09c-8.87-2.11-13.39-9.28-17.66-16.52C17.14,93.85,15,90.1,12.81,86.37Z" fill="#7fa8fc" stroke="#ccc" stroke-miterlimit="10"/><path d="M111.57,85.47c-9.59,0-19.19,0-28.78.06-1.5,0-3,.28-4.15-1a5.27,5.27,0,0,1,.49-5.16c4.86-7.82,9-16.06,13.85-23.9,3.55-7.76,7.94-15.07,12.22-22.43,1.15-2,2-4.83,5.45-3.6,11.46,15.55,18.92,27.82,6.63,46.2C115.17,78.77,113.46,82.18,111.57,85.47Z" fill="#d2dffc" stroke="#ccc" stroke-miterlimit="10"/><path d="M74.21,26.94c-5.4-8.11-6.46-17.74-12.59-25.4C70.44,2,79.38.09,88.07,3.38c7.31,2.76,12.77,7.34,16.22,14.36,1.95,4,5.18,7.28,6.36,11.69-6.08,8.55-10.53,18.07-16,27-1.8.77-3.12.31-4.21-1.36A183.79,183.79,0,0,1,78,33.09c-.64-1.36-2.33-2.9-1.76-4.15S75.26,27.62,74.21,26.94Z" fill="#f8fcfe" stroke="#ccc" stroke-miterlimit="10"/><path d="M46,29.69l-33.37-.25c1.56-2.92,3.19-5.79,4.66-8.75C26,3.14,40.15-2,61.62,1.54a11.26,11.26,0,0,1,7.2,6.11c3.32,6.74,7.82,15.65,9.39,23.29-.07,2.48-20.33,1.22-28.94.68A4.15,4.15,0,0,1,46,29.69Z" fill="#216efb" stroke="#ccc" stroke-miterlimit="10"/><path d="M61.21,113.94c-4.36-7.79-8.26-17-12.53-24.87-.93-1.71-.81-5.27-1.47-7.13.48-.73,21.5-2.06,31.59-.49,6.07,1.31,12.19.13,18.28.45,3.14.17,6.3,0,9.45.14,2,.12,4,.22,5,2.43-3.72,6.07-7.07,12.37-11.44,18A26.88,26.88,0,0,1,81,113C74.61,113.66,67.58,115.73,61.21,113.94Z" fill="#a9c4fd" stroke="#ccc" stroke-miterlimit="10"/><path d="M11.81,85.37c-2.33-4-4.75-8-7-12.06-5.95-11-5.79-21.93.53-32.64,2.26-3.83,4-8,7.24-11.23a9.15,9.15,0,0,1,5.66-2.25c8.71-.2,17.43-.63,26.12.29,3.41,1.23,2.78,3.51,1.58,6-3,6.24-6.81,12.1-10.16,18.18-1.28,2.31-2.43,4.68-3.64,7-4.23,6-7.44,12.72-11.23,19-1.27,2.12-2.57,4.22-3.84,6.33S14.1,87,11.81,85.37Z" fill="#558afc" stroke="#ccc" stroke-miterlimit="10"/></g></g></svg>